<?xml version="1.0" encoding="UTF-8"?>
<svg width="660px" height="700px" viewBox="0 0 660 700" version="1.1" xmlns="http://www.w3.org/2000/svg" xmlns:xlink="http://www.w3.org/1999/xlink">
    <!-- Generator: Sketch 59.1 (86144) - https://sketch.com -->
    <title>thought-diary</title>
    <desc>Created with Sketch.</desc>
    <g id="Page-1" stroke="none" stroke-width="1" fill="none" fill-rule="evenodd">
        <g id="thought-diary" fill="#6d7588" fill-rule="nonzero">
            <path d="M626.743317,29.8751824 L597.66388,29.8751824 C579.746247,29.8751824 565.166473,44.4549561 565.166473,62.3725895 L565.166473,164.222718 L565.166473,204.277038 L565.166473,300.017547 L565.166473,414.989471 L565.166473,512.748718 L565.166473,543.088532 C565.166473,551.87912 564.920807,558.784486 568.675231,566.693879 C572.157288,574.042511 575.634002,581.385804 579.1214,588.734437 C584.990692,601.124573 590.865326,613.52005 596.739959,625.915527 C599.602508,631.950378 605.530548,635.699469 612.206268,635.699469 C618.887329,635.699469 624.810028,631.950378 627.672577,625.915527 C633.905029,612.756348 640.142822,599.597168 646.380615,586.437988 C649.835968,579.148102 653.761292,571.916961 656.80542,564.440155 C661.574554,552.717591 659.240723,540.674591 659.240723,528.396606 C659.240723,497.3732 659.240723,466.355133 659.240723,435.331725 C659.240723,429.665374 654.647827,425.067139 648.976136,425.067139 C643.299103,425.067139 638.706208,429.660034 638.706208,435.331725 L638.706208,546.720124 L585.70633,546.720124 L585.70633,174.492645 L638.706208,174.492645 L638.706208,386.962127 C638.706208,392.63382 643.299103,397.232056 648.976136,397.232056 C654.647827,397.232056 659.240723,392.63382 659.240723,386.962127 L659.240723,62.3725895 C659.240723,44.4549561 644.666291,29.8751824 626.743317,29.8751824 L626.743317,29.8751824 Z M585.70633,153.279876 L585.70633,138.091278 L638.706208,138.091278 L638.706208,153.279876 L585.70633,153.279876 Z M585.70633,62.3725895 C585.70633,55.7769775 591.073608,50.4096988 597.66388,50.4096988 L626.748657,50.4096988 C633.338929,50.4096988 638.706208,55.7769775 638.706208,62.3725895 L638.706208,117.556763 L585.70633,117.556763 L585.70633,62.3725895 Z M632.746125,567.254639 L612.206268,610.593415 L591.666413,567.254639 L632.746125,567.254639 Z" id="Shape"></path>
            <path d="M408.644867,169.958496 L408.644867,108.071899 C408.644867,98.635101 400.970459,90.9606934 391.533661,90.9606934 L89.0007016,90.9606934 C79.5639031,90.9606934 71.8841553,98.635101 71.8841553,108.071899 L71.8841553,169.963836 C71.8841553,179.400635 79.5585629,187.075042 89.0007016,187.075042 L132.008362,187.075042 C137.680054,187.075042 142.278289,182.482147 142.278289,176.805114 C142.278289,171.133423 137.680054,166.540527 132.008362,166.540527 L92.4240105,166.540527 L92.4240105,111.495208 L388.110352,111.495208 L388.110352,166.540527 L179.470062,166.540527 C173.798371,166.540527 169.205475,171.133423 169.205475,176.805114 C169.205475,182.482147 173.798371,187.075042 179.470062,187.075042 L391.533661,187.075042 C400.970459,187.075042 408.644867,179.400635 408.644867,169.958496 L408.644867,169.958496 Z" id="Path"></path>
            <path d="M489.981842,50.3829949 L480.529022,50.3829949 L480.529022,33.715057 C480.529022,15.1245117 465.40451,0 446.813965,0 L10.2699283,0 C4.59823574,0 0,4.59823574 0,10.2699283 L0,609.300995 C0,628.858185 15.9095768,644.76242 35.4614258,644.76242 L45.4910285,644.76242 L45.4910285,682.600404 C45.4910285,688.875579 48.7327572,694.493866 54.1641242,697.639466 C56.8878174,699.209595 59.87854,700.000678 62.8639225,700.000678 C65.838623,700.000678 68.8186652,699.220277 71.5263363,697.655487 L99.340057,681.660462 L127.153778,697.655487 C132.590485,700.790405 139.084626,700.779723 144.510651,697.639466 C149.947357,694.493866 153.189087,688.875579 153.189087,682.600404 L153.189087,644.76242 L489.987183,644.76242 C508.577728,644.76242 523.70224,629.637909 523.70224,611.047363 L523.70224,84.0980533 C523.696899,65.5075066 508.572388,50.3829949 489.981842,50.3829949 Z M45.4910285,624.227905 L35.4614258,624.227905 C27.2315982,624.227905 20.534515,617.530823 20.534515,609.300995 L20.534515,594.379425 L45.4910285,594.379425 L45.4910285,624.227905 Z M132.649232,677.126312 L108.002472,662.952423 C102.661896,659.876252 96.0235596,659.876252 90.6776432,662.952423 L66.0308838,677.126312 L66.0308838,594.379425 L132.649232,594.379425 L132.649232,677.126312 Z M142.919159,573.839569 L20.534515,573.839569 L20.534515,20.534515 L446.813965,20.534515 C454.082489,20.534515 459.994507,26.4465332 459.994507,33.715057 L459.994507,560.664368 C459.994507,567.927552 454.082489,573.839569 446.813965,573.839569 L142.919159,573.839569 Z M503.162384,611.047363 C503.162384,618.315887 497.250366,624.227905 489.981842,624.227905 L153.189087,624.227905 L153.189087,594.379425 L446.813965,594.379425 C465.40451,594.379425 480.529022,579.254914 480.529022,560.664368 L480.529022,70.9228516 L489.981842,70.9228516 C497.250366,70.9228516 503.162384,76.8348697 503.162384,84.1033936 L503.162384,611.047363 Z" id="Shape"></path>
            <path d="M361.113739,406.877136 C361.113739,401.205444 356.515503,396.612549 350.843812,396.612549 L194.578552,396.612549 C188.90686,396.612549 184.308625,401.205444 184.308625,406.877136 C184.308625,412.554168 188.90686,417.147064 194.578552,417.147064 L350.843812,417.147064 C356.515503,417.147064 361.113739,412.548828 361.113739,406.877136 Z" id="Path"></path>
            <path d="M420.837402,396.612549 L399.101257,396.612549 C393.434906,396.612549 388.83667,401.205444 388.83667,406.877136 C388.83667,412.554168 393.429565,417.147064 399.101257,417.147064 L420.837402,417.147064 C426.509095,417.147064 431.107331,412.554168 431.107331,406.877136 C431.107331,401.205444 426.514435,396.612549 420.837402,396.612549 Z" id="Path"></path>
            <path d="M194.578552,461.810303 C188.90686,461.810303 184.308625,466.408538 184.308625,472.080231 C184.308625,477.751922 188.90686,482.350159 194.578552,482.350159 L252.95105,482.350159 C258.617401,482.350159 263.215638,477.751922 263.215638,472.080231 C263.215638,466.408538 258.622741,461.810303 252.95105,461.810303 L194.578552,461.810303 Z" id="Path"></path>
            <path d="M420.837402,461.810303 L300.001527,461.810303 C294.329834,461.810303 289.731598,466.408538 289.731598,472.080231 C289.731598,477.751922 294.329834,482.350159 300.001527,482.350159 L420.837402,482.350159 C426.509095,482.350159 431.107331,477.751922 431.107331,472.080231 C431.107331,466.408538 426.514435,461.810303 420.837402,461.810303 Z" id="Path"></path>
            <path d="M288.54599,502.414704 L194.578552,502.414704 C188.90686,502.414704 184.308625,507.007599 184.308625,512.67929 C184.308625,518.356323 188.90686,522.949219 194.578552,522.949219 L288.54599,522.949219 C294.217682,522.949219 298.815918,518.356323 298.815918,512.67929 C298.815918,507.012939 294.217682,502.414704 288.54599,502.414704 Z" id="Path"></path>
            <path d="M420.837402,502.414704 L335.099792,502.414704 C329.428101,502.414704 324.829865,507.007599 324.829865,512.67929 C324.829865,518.356323 329.42276,522.949219 335.099792,522.949219 L420.837402,522.949219 C426.509095,522.949219 431.107331,518.356323 431.107331,512.67929 C431.107331,507.012939 426.514435,502.414704 420.837402,502.414704 Z" id="Path"></path>
        </g>
    </g>
</svg>